<svg xmlns="http://www.w3.org/2000/svg" xmlns:xlink="http://www.w3.org/1999/xlink" width="100" zoomAndPan="magnify" viewBox="0 0 75 74.999997" height="100" preserveAspectRatio="xMidYMid meet" version="1.0"><defs><clipPath id="ac29bc12e6"><path d="M 37.5 0 C 58.210938 0 75 16.789062 75 37.5 C 75 58.210938 58.210938 75 37.5 75 C 16.789062 75 0 58.210938 0 37.5 C 0 16.789062 16.789062 0 37.5 0 L 37.5 15 C 25.074219 15 15 25.074219 15 37.5 C 15 49.925781 25.074219 60 37.5 60 C 49.925781 60 60 49.925781 60 37.5 C 60 25.074219 49.925781 15 37.5 15 Z M 37.5 0 " clip-rule="nonzero"/></clipPath><clipPath id="43d1495ec7"><path d="M 37 0 L 75 0 L 75 67 L 37 67 Z M 37 0 " clip-rule="nonzero"/></clipPath><clipPath id="94b888378f"><path d="M 46.875 1.191406 C 60.101562 4.605469 70.425781 14.941406 73.820312 28.175781 C 77.21875 41.40625 73.152344 55.4375 63.207031 64.800781 C 60.191406 67.640625 55.445312 67.5 52.605469 64.484375 C 49.765625 61.46875 49.910156 56.71875 52.925781 53.882812 C 58.890625 48.261719 61.332031 39.84375 59.292969 31.90625 C 57.253906 23.964844 51.0625 17.761719 43.125 15.714844 C 39.113281 14.679688 36.703125 10.589844 37.738281 6.578125 C 38.773438 2.566406 42.863281 0.15625 46.875 1.191406 Z M 46.875 1.191406 " clip-rule="nonzero"/></clipPath></defs><g clip-path="url(#ac29bc12e6)"><rect x="-7.5" width="90" fill="#ffffff" y="-7.5" height="89.999996" fill-opacity="1"/></g><g clip-path="url(#43d1495ec7)"><g clip-path="url(#94b888378f)"><rect x="-7.5" width="90" fill="#6366f1" y="-7.5" height="89.999996" fill-opacity="1"/></g></g></svg>